# xmcd
#
# Track frame offsets:
# 150
# 21827
# 34727
# 47627
# 67129
# 78828
# 92855
# 115354
# 130880
# 146781
# 174607
# 195008
# 209632
# 221556
# 231981
# 246082
# 260409
# 276009
# 289586
# 299862
# 318013
# 332862
#
# Disc length: 4668 seconds
#
#
# Revision: 0
# Processed by: cddbd v1.5.2PL0 Copyright (c) Steve Scherf et al.
# Submitted via: FreeRIP 2.951 
#
DISCID=59123a16
DTITLE=Hugo Pena and Gabriel  - ao vivo em Maringá
DYEAR=2008
DGENRE=sertanejo universitario
TTITLE0=MORRO DE SAUDADE (Zé Henrique)
TTITLE1=BANDIDAÇA (Gabriel - Flávio Aquino)
TTITLE2=MALA PRONTA (Hugo Pena - Flávio Aquino);
TTITLE3=POR ENQUANTO ADEUS (Hugo Pena)
TTITLE4=TADIM, TADIM (Airo)
TTITLE5=RECADO MEU (Marco Aurélio - Elizandra - Sandra)
TTITLE6=PARECE CASTIGO (Leleu Chaparral - Luis venâncio)
TTITLE7=PRA LÁ DE BAGDÁ (Cláudio Carvalho - Castorino)
TTITLE8=POUT-POURRI DE VIOLA - 1. Pagode, 2. Pagode em Brasília e 3. Vou Tomá um Pingão (1. Tião Carreiro - Carreirinho, 2. Taddy Vieira
TTITLE9=SINTO FALTA DESSE AMOR (Is It Okay If I Call You Mine?) (Paul MacCrane - Vs. J. Junior)
TTITLE10=CIGANA (Mauricio Gasperini - Rick Ferreira - Juno)
TTITLE11=MEU CALOR (Gabriel)
TTITLE12=ROBIN HOOD DA PAIXÃO (Marcia Araújo - Julian - Chico Amado)
TTITLE13=ABUSO DE MULHER (Hugo Pena - Jefferson Pinas)
TTITLE14=COISAS ESOTÉRICAS (Baroni)
TTITLE15=FORA DO EIXO (Hugo Pena - Ronair Borges)
TTITLE16=AMANHÃ VAZIO (Hugo Pena - Ronaldo)
TTITLE17=ELA É VIOLENTA (Joe - Douglas Melo - Nando Marx)
TTITLE18=PÁRA TUDO (Hugo Pena - Paulo Mazetti)
TTITLE19=FAZ DE CONTA (Bruno - Elias Muniz - Felipe)
TTITLE20=SOU O HOMEM IDEAL (Michael Sullivan - Carlos Cola)
TTITLE21=FICA DO MEU LADO (Hugo
EXTD=jandsa@bol.com.br
EXTT0=
EXTT1=
EXTT2=
EXTT3=
EXTT4=
EXTT5=
EXTT6=
EXTT7=
EXTT8=
EXTT9=
EXTT10=
EXTT11=
EXTT12=
EXTT13=
EXTT14=
EXTT15=
EXTT16=
EXTT17=
EXTT18=
EXTT19=
EXTT20=
EXTT21=
PLAYORDER=
